<svg width="5824" height="3186" viewBox="0 0 5824 3186" fill="none" xmlns="http://www.w3.org/2000/svg">
<path d="M5744.52 260.624H296.341V3116.87H5744.52V260.624Z" fill="black"/>
<path d="M5730.52 267H282.522V3124H5730.52V267Z" fill="url(#paint0_linear_1_5)"/>
<path d="M2755.7 264.9L3490.1 1002.48L2842.1 2616.23L3288.51 3126.1L3125.31 3136L2688.49 2621.18L3326.91 1017.33L2534.89 255L2755.7 264.9Z" fill="white"/>
<mask id="mask0_1_5" style="mask-type:luminance" maskUnits="userSpaceOnUse" x="2734" y="269" width="3090" height="2917">
<path d="M2734 270.784L3498.95 1025.25L2826.77 2667.94L3285.18 3185.18L5823.57 3181.61L5818.32 269L2734 270.784Z" fill="white"/>
</mask>
<g mask="url(#mask0_1_5)">
<g opacity="0.2">
<path opacity="0.2" d="M3149.25 270.826H2958.91V464.768H3149.25V270.826Z" fill="black"/>
<path opacity="0.2" d="M2958.92 270.826H2768.58V464.768H2958.92V270.826Z" fill="white"/>
<path opacity="0.2" d="M2768.57 464.768H2958.91V658.711H2768.57V464.768Z" fill="black"/>
<path opacity="0.2" d="M2958.91 464.768H3149.25V658.711H2958.91V464.768Z" fill="white"/>
<path opacity="0.2" d="M3149.25 658.711H2958.91V852.653H3149.25V658.711Z" fill="black"/>
<path opacity="0.2" d="M2958.92 658.711H2768.58V852.653H2958.92V658.711Z" fill="white"/>
<path opacity="0.2" d="M2768.57 852.653H2958.91V1046.6H2768.57V852.653Z" fill="black"/>
<path opacity="0.2" d="M2958.91 852.653H3149.25V1046.6H2958.91V852.653Z" fill="white"/>
<path opacity="0.2" d="M3149.25 1046.6H2958.91V1240.54H3149.25V1046.6Z" fill="black"/>
<path opacity="0.2" d="M2958.92 1046.6H2768.58V1240.54H2958.92V1046.6Z" fill="white"/>
<path opacity="0.2" d="M2768.57 1240.54H2958.91V1434.48H2768.57V1240.54Z" fill="black"/>
<path opacity="0.2" d="M2958.91 1240.54H3149.25V1434.48H2958.91V1240.54Z" fill="white"/>
<path opacity="0.2" d="M3149.25 1434.48H2958.91V1628.42H3149.25V1434.48Z" fill="black"/>
<path opacity="0.2" d="M2958.92 1434.48H2768.58V1628.42H2958.92V1434.48Z" fill="white"/>
<path opacity="0.2" d="M2768.57 1628.42H2958.91V1822.36H2768.57V1628.42Z" fill="black"/>
<path opacity="0.2" d="M2958.91 1628.42H3149.25V1822.36H2958.91V1628.42Z" fill="white"/>
<path opacity="0.2" d="M3149.25 1822.36H2958.91V2016.31H3149.25V1822.36Z" fill="black"/>
<path opacity="0.2" d="M2958.92 1822.36H2768.58V2016.31H2958.92V1822.36Z" fill="white"/>
<path opacity="0.2" d="M2768.57 2016.31H2958.91V2210.25H2768.57V2016.31Z" fill="black"/>
<path opacity="0.2" d="M2958.91 2016.31H3149.25V2210.25H2958.91V2016.31Z" fill="white"/>
<path opacity="0.2" d="M3149.25 2210.25H2958.91V2404.19H3149.25V2210.25Z" fill="black"/>
<path opacity="0.2" d="M2958.92 2210.25H2768.58V2404.19H2958.92V2210.25Z" fill="white"/>
<path opacity="0.2" d="M2768.57 2404.19H2958.91V2598.13H2768.57V2404.19Z" fill="black"/>
<path opacity="0.2" d="M2958.91 2404.19H3149.25V2598.13H2958.91V2404.19Z" fill="white"/>
<path opacity="0.2" d="M3149.25 2598.13H2958.91V2792.08H3149.25V2598.13Z" fill="black"/>
<path opacity="0.2" d="M2958.92 2598.13H2768.58V2792.08H2958.92V2598.13Z" fill="white"/>
<path opacity="0.2" d="M2768.57 2792.08H2958.91V2986.02H2768.57V2792.08Z" fill="black"/>
<path opacity="0.2" d="M2958.91 2792.08H3149.25V2986.02H2958.91V2792.08Z" fill="white"/>
<path opacity="0.2" d="M3149.25 2986.02H2958.91V3179.96H3149.25V2986.02Z" fill="black"/>
<path opacity="0.2" d="M2958.92 2986.02H2768.58V3179.96H2958.92V2986.02Z" fill="white"/>
<path opacity="0.2" d="M2768.57 3179.96H2958.91V3373.9H2768.57V3179.96Z" fill="black"/>
<path opacity="0.2" d="M2958.91 3179.96H3149.25V3373.9H2958.91V3179.96Z" fill="white"/>
<path opacity="0.2" d="M3529.93 270.826H3339.59V464.768H3529.93V270.826Z" fill="black"/>
<path opacity="0.2" d="M3339.59 270.826H3149.25V464.768H3339.59V270.826Z" fill="white"/>
<path opacity="0.2" d="M3149.25 464.768H3339.59V658.711H3149.25V464.768Z" fill="black"/>
<path opacity="0.2" d="M3339.59 464.768H3529.93V658.711H3339.59V464.768Z" fill="white"/>
<path opacity="0.2" d="M3529.93 658.711H3339.59V852.653H3529.93V658.711Z" fill="black"/>
<path opacity="0.2" d="M3339.59 658.711H3149.25V852.653H3339.59V658.711Z" fill="white"/>
<path opacity="0.2" d="M3149.25 852.653H3339.59V1046.6H3149.25V852.653Z" fill="black"/>
<path opacity="0.2" d="M3339.59 852.653H3529.93V1046.6H3339.59V852.653Z" fill="white"/>
<path opacity="0.2" d="M3529.93 1046.6H3339.59V1240.54H3529.93V1046.6Z" fill="black"/>
<path opacity="0.2" d="M3339.59 1046.6H3149.25V1240.54H3339.59V1046.6Z" fill="white"/>
<path opacity="0.2" d="M3149.25 1240.54H3339.59V1434.48H3149.25V1240.54Z" fill="black"/>
<path opacity="0.2" d="M3339.59 1240.54H3529.93V1434.48H3339.59V1240.54Z" fill="white"/>
<path opacity="0.2" d="M3529.93 1434.48H3339.59V1628.42H3529.93V1434.48Z" fill="black"/>
<path opacity="0.2" d="M3339.59 1434.48H3149.25V1628.42H3339.59V1434.48Z" fill="white"/>
<path opacity="0.2" d="M3149.25 1628.42H3339.59V1822.36H3149.25V1628.42Z" fill="black"/>
<path opacity="0.2" d="M3339.59 1628.42H3529.93V1822.36H3339.59V1628.42Z" fill="white"/>
<path opacity="0.2" d="M3529.93 1822.36H3339.59V2016.31H3529.93V1822.36Z" fill="black"/>
<path opacity="0.2" d="M3339.59 1822.36H3149.25V2016.31H3339.59V1822.36Z" fill="white"/>
<path opacity="0.2" d="M3149.25 2016.31H3339.59V2210.25H3149.25V2016.31Z" fill="black"/>
<path opacity="0.2" d="M3339.59 2016.31H3529.93V2210.25H3339.59V2016.31Z" fill="white"/>
<path opacity="0.2" d="M3529.93 2210.25H3339.59V2404.19H3529.93V2210.25Z" fill="black"/>
<path opacity="0.2" d="M3339.59 2210.25H3149.25V2404.19H3339.59V2210.25Z" fill="white"/>
<path opacity="0.2" d="M3149.25 2404.19H3339.59V2598.13H3149.25V2404.19Z" fill="black"/>
<path opacity="0.2" d="M3339.59 2404.19H3529.93V2598.13H3339.59V2404.19Z" fill="white"/>
<path opacity="0.2" d="M3529.93 2598.13H3339.59V2792.08H3529.93V2598.13Z" fill="black"/>
<path opacity="0.2" d="M3339.59 2598.13H3149.25V2792.08H3339.59V2598.13Z" fill="white"/>
<path opacity="0.2" d="M3149.25 2792.08H3339.59V2986.02H3149.25V2792.08Z" fill="black"/>
<path opacity="0.2" d="M3339.59 2792.08H3529.93V2986.02H3339.59V2792.08Z" fill="white"/>
<path opacity="0.2" d="M3529.93 2986.02H3339.59V3179.96H3529.93V2986.02Z" fill="black"/>
<path opacity="0.2" d="M3339.59 2986.02H3149.25V3179.96H3339.59V2986.02Z" fill="white"/>
<path opacity="0.2" d="M3149.25 3179.96H3339.59V3373.9H3149.25V3179.96Z" fill="black"/>
<path opacity="0.2" d="M3339.59 3179.96H3529.93V3373.9H3339.59V3179.96Z" fill="white"/>
<path opacity="0.2" d="M3910.61 270.826H3720.27V464.768H3910.61V270.826Z" fill="black"/>
<path opacity="0.2" d="M3720.27 270.826H3529.93V464.768H3720.27V270.826Z" fill="white"/>
<path opacity="0.2" d="M3529.93 464.768H3720.27V658.711H3529.93V464.768Z" fill="black"/>
<path opacity="0.2" d="M3720.27 464.768H3910.61V658.711H3720.27V464.768Z" fill="white"/>
<path opacity="0.2" d="M3910.61 658.711H3720.27V852.653H3910.61V658.711Z" fill="black"/>
<path opacity="0.2" d="M3720.27 658.711H3529.93V852.653H3720.27V658.711Z" fill="white"/>
<path opacity="0.2" d="M3529.93 852.653H3720.27V1046.6H3529.93V852.653Z" fill="black"/>
<path opacity="0.2" d="M3720.27 852.653H3910.61V1046.6H3720.27V852.653Z" fill="white"/>
<path opacity="0.2" d="M3910.61 1046.6H3720.27V1240.54H3910.61V1046.6Z" fill="black"/>
<path opacity="0.2" d="M3720.27 1046.6H3529.93V1240.54H3720.27V1046.6Z" fill="white"/>
<path opacity="0.2" d="M3529.93 1240.54H3720.27V1434.48H3529.93V1240.54Z" fill="black"/>
<path opacity="0.2" d="M3720.27 1240.54H3910.61V1434.48H3720.27V1240.54Z" fill="white"/>
<path opacity="0.2" d="M3910.61 1434.48H3720.27V1628.42H3910.61V1434.48Z" fill="black"/>
<path opacity="0.2" d="M3720.27 1434.48H3529.93V1628.42H3720.27V1434.48Z" fill="white"/>
<path opacity="0.2" d="M3529.93 1628.42H3720.27V1822.36H3529.93V1628.42Z" fill="black"/>
<path opacity="0.2" d="M3720.27 1628.42H3910.61V1822.36H3720.27V1628.42Z" fill="white"/>
<path opacity="0.2" d="M3910.61 1822.36H3720.27V2016.31H3910.61V1822.36Z" fill="black"/>
<path opacity="0.2" d="M3720.27 1822.36H3529.93V2016.31H3720.27V1822.36Z" fill="white"/>
<path opacity="0.2" d="M3529.93 2016.31H3720.27V2210.25H3529.93V2016.31Z" fill="black"/>
<path opacity="0.2" d="M3720.27 2016.31H3910.61V2210.25H3720.27V2016.31Z" fill="white"/>
<path opacity="0.2" d="M3910.61 2210.25H3720.27V2404.19H3910.61V2210.25Z" fill="black"/>
<path opacity="0.2" d="M3720.27 2210.25H3529.93V2404.19H3720.27V2210.25Z" fill="white"/>
<path opacity="0.2" d="M3529.93 2404.19H3720.27V2598.13H3529.93V2404.19Z" fill="black"/>
<path opacity="0.2" d="M3720.27 2404.19H3910.61V2598.13H3720.27V2404.19Z" fill="white"/>
<path opacity="0.2" d="M3910.61 2598.13H3720.27V2792.08H3910.61V2598.13Z" fill="black"/>
<path opacity="0.2" d="M3720.27 2598.13H3529.93V2792.08H3720.27V2598.13Z" fill="white"/>
<path opacity="0.2" d="M3529.93 2792.08H3720.27V2986.02H3529.93V2792.08Z" fill="black"/>
<path opacity="0.2" d="M3720.27 2792.08H3910.61V2986.02H3720.27V2792.08Z" fill="white"/>
<path opacity="0.2" d="M3910.61 2986.02H3720.27V3179.96H3910.61V2986.02Z" fill="black"/>
<path opacity="0.2" d="M3720.27 2986.02H3529.93V3179.96H3720.27V2986.02Z" fill="white"/>
<path opacity="0.2" d="M3529.93 3179.96H3720.27V3373.9H3529.93V3179.96Z" fill="black"/>
<path opacity="0.2" d="M3720.27 3179.96H3910.61V3373.9H3720.27V3179.96Z" fill="white"/>
<path opacity="0.2" d="M4291.29 270.826H4100.95V464.768H4291.29V270.826Z" fill="black"/>
<path opacity="0.2" d="M4100.95 270.826H3910.61V464.768H4100.95V270.826Z" fill="white"/>
<path opacity="0.2" d="M3910.61 464.768H4100.95V658.711H3910.61V464.768Z" fill="black"/>
<path opacity="0.2" d="M4100.95 464.768H4291.29V658.711H4100.95V464.768Z" fill="white"/>
<path opacity="0.2" d="M4291.29 658.711H4100.95V852.653H4291.29V658.711Z" fill="black"/>
<path opacity="0.2" d="M4100.95 658.711H3910.61V852.653H4100.95V658.711Z" fill="white"/>
<path opacity="0.2" d="M3910.61 852.653H4100.95V1046.6H3910.61V852.653Z" fill="black"/>
<path opacity="0.2" d="M4100.95 852.653H4291.29V1046.6H4100.95V852.653Z" fill="white"/>
<path opacity="0.2" d="M4291.29 1046.6H4100.95V1240.54H4291.29V1046.6Z" fill="black"/>
<path opacity="0.2" d="M4100.95 1046.6H3910.61V1240.54H4100.95V1046.6Z" fill="white"/>
<path opacity="0.2" d="M3910.61 1240.54H4100.95V1434.48H3910.61V1240.54Z" fill="black"/>
<path opacity="0.2" d="M4100.95 1240.54H4291.29V1434.48H4100.95V1240.54Z" fill="white"/>
<path opacity="0.2" d="M4291.29 1434.48H4100.95V1628.42H4291.29V1434.48Z" fill="black"/>
<path opacity="0.2" d="M4100.95 1434.48H3910.61V1628.42H4100.95V1434.48Z" fill="white"/>
<path opacity="0.2" d="M3910.61 1628.42H4100.95V1822.36H3910.61V1628.42Z" fill="black"/>
<path opacity="0.2" d="M4100.95 1628.42H4291.29V1822.36H4100.95V1628.42Z" fill="white"/>
<path opacity="0.2" d="M4291.29 1822.36H4100.95V2016.31H4291.29V1822.36Z" fill="black"/>
<path opacity="0.2" d="M4100.95 1822.36H3910.61V2016.31H4100.95V1822.36Z" fill="white"/>
<path opacity="0.2" d="M3910.61 2016.31H4100.95V2210.25H3910.61V2016.31Z" fill="black"/>
<path opacity="0.2" d="M4100.95 2016.31H4291.29V2210.25H4100.95V2016.31Z" fill="white"/>
<path opacity="0.2" d="M4291.29 2210.25H4100.95V2404.19H4291.29V2210.25Z" fill="black"/>
<path opacity="0.2" d="M4100.95 2210.25H3910.61V2404.19H4100.95V2210.25Z" fill="white"/>
<path opacity="0.2" d="M3910.61 2404.19H4100.95V2598.13H3910.61V2404.19Z" fill="black"/>
<path opacity="0.2" d="M4100.95 2404.19H4291.29V2598.13H4100.95V2404.19Z" fill="white"/>
<path opacity="0.2" d="M4291.29 2598.13H4100.95V2792.08H4291.29V2598.13Z" fill="black"/>
<path opacity="0.2" d="M4100.95 2598.13H3910.61V2792.08H4100.95V2598.13Z" fill="white"/>
<path opacity="0.2" d="M3910.61 2792.08H4100.95V2986.02H3910.61V2792.08Z" fill="black"/>
<path opacity="0.2" d="M4100.95 2792.08H4291.29V2986.02H4100.95V2792.08Z" fill="white"/>
<path opacity="0.2" d="M4291.29 2986.02H4100.95V3179.96H4291.29V2986.02Z" fill="black"/>
<path opacity="0.2" d="M4100.95 2986.02H3910.61V3179.96H4100.95V2986.02Z" fill="white"/>
<path opacity="0.2" d="M3910.61 3179.96H4100.95V3373.9H3910.61V3179.96Z" fill="black"/>
<path opacity="0.2" d="M4100.95 3179.96H4291.29V3373.9H4100.95V3179.96Z" fill="white"/>
<path opacity="0.2" d="M4671.97 270.826H4481.63V464.768H4671.97V270.826Z" fill="black"/>
<path opacity="0.2" d="M4481.63 270.826H4291.29V464.768H4481.63V270.826Z" fill="white"/>
<path opacity="0.2" d="M4291.29 464.768H4481.63V658.711H4291.29V464.768Z" fill="black"/>
<path opacity="0.2" d="M4481.63 464.768H4671.97V658.711H4481.63V464.768Z" fill="white"/>
<path opacity="0.2" d="M4671.97 658.711H4481.63V852.653H4671.97V658.711Z" fill="black"/>
<path opacity="0.2" d="M4481.63 658.711H4291.29V852.653H4481.63V658.711Z" fill="white"/>
<path opacity="0.2" d="M4291.29 852.653H4481.63V1046.6H4291.29V852.653Z" fill="black"/>
<path opacity="0.2" d="M4481.63 852.653H4671.97V1046.6H4481.63V852.653Z" fill="white"/>
<path opacity="0.2" d="M4671.97 1046.6H4481.63V1240.54H4671.97V1046.6Z" fill="black"/>
<path opacity="0.2" d="M4481.63 1046.6H4291.29V1240.54H4481.63V1046.6Z" fill="white"/>
<path opacity="0.2" d="M4291.29 1240.54H4481.63V1434.48H4291.29V1240.54Z" fill="black"/>
<path opacity="0.2" d="M4481.63 1240.54H4671.97V1434.48H4481.63V1240.54Z" fill="white"/>
<path opacity="0.2" d="M4671.97 1434.48H4481.63V1628.42H4671.97V1434.48Z" fill="black"/>
<path opacity="0.2" d="M4481.63 1434.48H4291.29V1628.42H4481.63V1434.48Z" fill="white"/>
<path opacity="0.2" d="M4291.29 1628.42H4481.63V1822.36H4291.29V1628.42Z" fill="black"/>
<path opacity="0.2" d="M4481.63 1628.42H4671.97V1822.36H4481.63V1628.42Z" fill="white"/>
<path opacity="0.2" d="M4671.97 1822.36H4481.63V2016.31H4671.97V1822.36Z" fill="black"/>
<path opacity="0.2" d="M4481.63 1822.36H4291.29V2016.31H4481.63V1822.36Z" fill="white"/>
<path opacity="0.2" d="M4291.29 2016.31H4481.63V2210.25H4291.29V2016.31Z" fill="black"/>
<path opacity="0.2" d="M4481.63 2016.31H4671.97V2210.25H4481.63V2016.31Z" fill="white"/>
<path opacity="0.2" d="M4671.97 2210.25H4481.63V2404.19H4671.97V2210.25Z" fill="black"/>
<path opacity="0.2" d="M4481.63 2210.25H4291.29V2404.19H4481.63V2210.25Z" fill="white"/>
<path opacity="0.2" d="M4291.29 2404.19H4481.63V2598.13H4291.29V2404.19Z" fill="black"/>
<path opacity="0.2" d="M4481.63 2404.19H4671.97V2598.13H4481.63V2404.19Z" fill="white"/>
<path opacity="0.2" d="M4671.97 2598.13H4481.63V2792.08H4671.97V2598.13Z" fill="black"/>
<path opacity="0.2" d="M4481.63 2598.13H4291.29V2792.08H4481.63V2598.13Z" fill="white"/>
<path opacity="0.2" d="M4291.29 2792.08H4481.63V2986.02H4291.29V2792.08Z" fill="black"/>
<path opacity="0.2" d="M4481.63 2792.08H4671.97V2986.02H4481.63V2792.08Z" fill="white"/>
<path opacity="0.2" d="M4671.97 2986.02H4481.63V3179.96H4671.97V2986.02Z" fill="black"/>
<path opacity="0.2" d="M4481.63 2986.02H4291.29V3179.96H4481.63V2986.02Z" fill="white"/>
<path opacity="0.2" d="M4291.29 3179.96H4481.63V3373.9H4291.29V3179.96Z" fill="black"/>
<path opacity="0.2" d="M4481.63 3179.96H4671.97V3373.9H4481.63V3179.96Z" fill="white"/>
<path opacity="0.2" d="M5052.65 270.826H4862.31V464.768H5052.65V270.826Z" fill="black"/>
<path opacity="0.2" d="M4862.31 270.826H4671.97V464.768H4862.31V270.826Z" fill="white"/>
<path opacity="0.2" d="M4671.97 464.768H4862.31V658.711H4671.97V464.768Z" fill="black"/>
<path opacity="0.2" d="M4862.31 464.768H5052.65V658.711H4862.31V464.768Z" fill="white"/>
<path opacity="0.2" d="M5052.65 658.711H4862.31V852.653H5052.65V658.711Z" fill="black"/>
<path opacity="0.2" d="M4862.31 658.711H4671.97V852.653H4862.31V658.711Z" fill="white"/>
<path opacity="0.2" d="M4671.97 852.653H4862.31V1046.6H4671.97V852.653Z" fill="black"/>
<path opacity="0.2" d="M4862.31 852.653H5052.65V1046.6H4862.31V852.653Z" fill="white"/>
<path opacity="0.2" d="M5052.65 1046.6H4862.31V1240.54H5052.65V1046.6Z" fill="black"/>
<path opacity="0.2" d="M4862.31 1046.6H4671.97V1240.54H4862.31V1046.6Z" fill="white"/>
<path opacity="0.2" d="M4671.97 1240.54H4862.31V1434.48H4671.97V1240.54Z" fill="black"/>
<path opacity="0.2" d="M4862.31 1240.54H5052.65V1434.48H4862.31V1240.54Z" fill="white"/>
<path opacity="0.2" d="M5052.65 1434.48H4862.31V1628.42H5052.65V1434.48Z" fill="black"/>
<path opacity="0.2" d="M4862.31 1434.48H4671.97V1628.42H4862.31V1434.48Z" fill="white"/>
<path opacity="0.2" d="M4671.97 1628.42H4862.31V1822.36H4671.97V1628.42Z" fill="black"/>
<path opacity="0.2" d="M4862.31 1628.42H5052.65V1822.36H4862.31V1628.42Z" fill="white"/>
<path opacity="0.2" d="M5052.65 1822.36H4862.31V2016.31H5052.65V1822.36Z" fill="black"/>
<path opacity="0.2" d="M4862.31 1822.36H4671.97V2016.31H4862.31V1822.36Z" fill="white"/>
<path opacity="0.2" d="M4671.97 2016.31H4862.31V2210.25H4671.97V2016.31Z" fill="black"/>
<path opacity="0.2" d="M4862.31 2016.31H5052.65V2210.25H4862.31V2016.31Z" fill="white"/>
<path opacity="0.2" d="M5052.65 2210.25H4862.31V2404.19H5052.65V2210.25Z" fill="black"/>
<path opacity="0.2" d="M4862.31 2210.25H4671.97V2404.19H4862.31V2210.25Z" fill="white"/>
<path opacity="0.2" d="M4671.97 2404.19H4862.31V2598.13H4671.97V2404.19Z" fill="black"/>
<path opacity="0.2" d="M4862.31 2404.19H5052.65V2598.13H4862.31V2404.19Z" fill="white"/>
<path opacity="0.2" d="M5052.65 2598.13H4862.31V2792.08H5052.65V2598.13Z" fill="black"/>
<path opacity="0.2" d="M4862.31 2598.13H4671.97V2792.08H4862.31V2598.13Z" fill="white"/>
<path opacity="0.2" d="M4671.97 2792.08H4862.31V2986.02H4671.97V2792.08Z" fill="black"/>
<path opacity="0.2" d="M4862.31 2792.08H5052.65V2986.02H4862.31V2792.08Z" fill="white"/>
<path opacity="0.2" d="M5052.65 2986.02H4862.31V3179.96H5052.65V2986.02Z" fill="black"/>
<path opacity="0.2" d="M4862.31 2986.02H4671.97V3179.96H4862.31V2986.02Z" fill="white"/>
<path opacity="0.2" d="M4671.97 3179.96H4862.31V3373.9H4671.97V3179.96Z" fill="black"/>
<path opacity="0.2" d="M4862.31 3179.96H5052.65V3373.9H4862.31V3179.96Z" fill="white"/>
<path opacity="0.2" d="M5433.33 270.826H5242.99V464.768H5433.33V270.826Z" fill="black"/>
<path opacity="0.2" d="M5242.99 270.826H5052.65V464.768H5242.99V270.826Z" fill="white"/>
<path opacity="0.2" d="M5052.65 464.768H5242.99V658.711H5052.65V464.768Z" fill="black"/>
<path opacity="0.2" d="M5242.99 464.768H5433.33V658.711H5242.99V464.768Z" fill="white"/>
<path opacity="0.2" d="M5433.33 658.711H5242.99V852.653H5433.33V658.711Z" fill="black"/>
<path opacity="0.2" d="M5242.99 658.711H5052.65V852.653H5242.99V658.711Z" fill="white"/>
<path opacity="0.2" d="M5052.65 852.653H5242.99V1046.6H5052.65V852.653Z" fill="black"/>
<path opacity="0.2" d="M5242.99 852.653H5433.33V1046.6H5242.99V852.653Z" fill="white"/>
<path opacity="0.2" d="M5433.33 1046.6H5242.99V1240.54H5433.33V1046.6Z" fill="black"/>
<path opacity="0.2" d="M5242.99 1046.6H5052.65V1240.54H5242.99V1046.6Z" fill="white"/>
<path opacity="0.2" d="M5052.65 1240.54H5242.99V1434.48H5052.65V1240.54Z" fill="black"/>
<path opacity="0.2" d="M5242.99 1240.54H5433.33V1434.48H5242.99V1240.54Z" fill="white"/>
<path opacity="0.2" d="M5433.33 1434.48H5242.99V1628.42H5433.33V1434.48Z" fill="black"/>
<path opacity="0.2" d="M5242.99 1434.48H5052.65V1628.42H5242.99V1434.48Z" fill="white"/>
<path opacity="0.2" d="M5052.65 1628.42H5242.99V1822.36H5052.65V1628.42Z" fill="black"/>
<path opacity="0.2" d="M5242.99 1628.42H5433.33V1822.36H5242.99V1628.42Z" fill="white"/>
<path opacity="0.2" d="M5433.33 1822.36H5242.99V2016.31H5433.33V1822.36Z" fill="black"/>
<path opacity="0.2" d="M5242.99 1822.36H5052.65V2016.31H5242.99V1822.36Z" fill="white"/>
<path opacity="0.2" d="M5052.65 2016.31H5242.99V2210.25H5052.65V2016.31Z" fill="black"/>
<path opacity="0.2" d="M5242.99 2016.31H5433.33V2210.25H5242.99V2016.31Z" fill="white"/>
<path opacity="0.2" d="M5433.33 2210.25H5242.99V2404.19H5433.33V2210.25Z" fill="black"/>
<path opacity="0.2" d="M5242.99 2210.25H5052.65V2404.19H5242.99V2210.25Z" fill="white"/>
<path opacity="0.2" d="M5052.65 2404.19H5242.99V2598.13H5052.65V2404.19Z" fill="black"/>
<path opacity="0.2" d="M5242.99 2404.19H5433.33V2598.13H5242.99V2404.19Z" fill="white"/>
<path opacity="0.2" d="M5433.33 2598.13H5242.99V2792.08H5433.33V2598.13Z" fill="black"/>
<path opacity="0.2" d="M5242.99 2598.13H5052.65V2792.08H5242.99V2598.13Z" fill="white"/>
<path opacity="0.2" d="M5052.65 2792.08H5242.99V2986.02H5052.65V2792.08Z" fill="black"/>
<path opacity="0.2" d="M5242.99 2792.08H5433.33V2986.02H5242.99V2792.08Z" fill="white"/>
<path opacity="0.2" d="M5433.33 2986.02H5242.99V3179.96H5433.33V2986.02Z" fill="black"/>
<path opacity="0.2" d="M5242.99 2986.02H5052.65V3179.96H5242.99V2986.02Z" fill="white"/>
<path opacity="0.2" d="M5052.65 3179.96H5242.99V3373.9H5052.65V3179.96Z" fill="black"/>
<path opacity="0.2" d="M5242.99 3179.96H5433.33V3373.9H5242.99V3179.96Z" fill="white"/>
<path opacity="0.2" d="M5814.01 270.826H5623.67V464.768H5814.01V270.826Z" fill="black"/>
<path opacity="0.2" d="M5623.67 270.826H5433.33V464.768H5623.67V270.826Z" fill="white"/>
<path opacity="0.2" d="M5433.33 464.768H5623.67V658.711H5433.33V464.768Z" fill="black"/>
<path opacity="0.2" d="M5623.67 464.768H5814.01V658.711H5623.67V464.768Z" fill="white"/>
<path opacity="0.2" d="M5814.01 658.711H5623.67V852.653H5814.01V658.711Z" fill="black"/>
<path opacity="0.2" d="M5623.67 658.711H5433.33V852.653H5623.67V658.711Z" fill="white"/>
<path opacity="0.2" d="M5433.33 852.653H5623.67V1046.6H5433.33V852.653Z" fill="black"/>
<path opacity="0.2" d="M5623.67 852.653H5814.01V1046.6H5623.67V852.653Z" fill="white"/>
<path opacity="0.2" d="M5814.01 1046.6H5623.67V1240.54H5814.01V1046.6Z" fill="black"/>
<path opacity="0.2" d="M5623.67 1046.6H5433.33V1240.54H5623.67V1046.6Z" fill="white"/>
<path opacity="0.2" d="M5433.33 1240.54H5623.67V1434.48H5433.33V1240.54Z" fill="black"/>
<path opacity="0.2" d="M5623.67 1240.54H5814.01V1434.48H5623.67V1240.54Z" fill="white"/>
<path opacity="0.2" d="M5814.01 1434.48H5623.67V1628.42H5814.01V1434.48Z" fill="black"/>
<path opacity="0.2" d="M5623.67 1434.48H5433.33V1628.42H5623.67V1434.48Z" fill="white"/>
<path opacity="0.2" d="M5433.33 1628.42H5623.67V1822.36H5433.33V1628.42Z" fill="black"/>
<path opacity="0.2" d="M5623.67 1628.42H5814.01V1822.36H5623.67V1628.42Z" fill="white"/>
<path opacity="0.2" d="M5814.01 1822.36H5623.67V2016.31H5814.01V1822.36Z" fill="black"/>
<path opacity="0.2" d="M5623.67 1822.36H5433.33V2016.31H5623.67V1822.36Z" fill="white"/>
<path opacity="0.2" d="M5433.33 2016.31H5623.67V2210.25H5433.33V2016.31Z" fill="black"/>
<path opacity="0.2" d="M5623.67 2016.31H5814.01V2210.25H5623.67V2016.31Z" fill="white"/>
<path opacity="0.2" d="M5814.01 2210.25H5623.67V2404.19H5814.01V2210.25Z" fill="black"/>
<path opacity="0.2" d="M5623.67 2210.25H5433.33V2404.19H5623.67V2210.25Z" fill="white"/>
<path opacity="0.2" d="M5433.33 2404.19H5623.67V2598.13H5433.33V2404.19Z" fill="black"/>
<path opacity="0.2" d="M5623.67 2404.19H5814.01V2598.13H5623.67V2404.19Z" fill="white"/>
<path opacity="0.2" d="M5814.01 2598.13H5623.67V2792.08H5814.01V2598.13Z" fill="black"/>
<path opacity="0.2" d="M5623.67 2598.13H5433.33V2792.08H5623.67V2598.13Z" fill="white"/>
<path opacity="0.2" d="M5433.33 2792.08H5623.67V2986.02H5433.33V2792.08Z" fill="black"/>
<path opacity="0.2" d="M5623.67 2792.08H5814.01V2986.02H5623.67V2792.08Z" fill="white"/>
<path opacity="0.2" d="M5814.01 2986.02H5623.67V3179.96H5814.01V2986.02Z" fill="black"/>
<path opacity="0.2" d="M5623.67 2986.02H5433.33V3179.96H5623.67V2986.02Z" fill="white"/>
<path opacity="0.2" d="M5433.33 3179.96H5623.67V3373.9H5433.33V3179.96Z" fill="black"/>
<path opacity="0.2" d="M5623.67 3179.96H5814.01V3373.9H5623.67V3179.96Z" fill="white"/>
</g>
</g>
<path d="M4571.38 2408.92C4567.86 2379.94 4601.49 2349.51 4640.72 2346.18C4648.01 2345.56 4648.01 2345.56 4650.66 2336.47C4653.31 2327.38 4653.31 2327.38 4671.05 2323.16C4704.88 2315.11 4714.86 2305.97 4723.77 2274.88C4733.47 2241.01 4754.24 2221.17 4782.9 2218.41C4789.78 2217.74 4789.78 2217.74 4786.96 2213.29C4771.9 2189.5 4786.55 2161.15 4816.52 2156.05C4825.92 2154.45 4825.92 2154.45 4819.91 2144.01C4803.01 2114.64 4792.08 2054.49 4796.38 2014.48C4798.35 1996.09 4798.29 1996.2 4809.02 1992.06C4938.14 1942.22 5095.34 1804.23 5146.05 1696.21C5157.19 1672.46 5171.56 1631.91 5161.88 1651.51C5131.33 1713.37 5049.41 1760.5 4990.33 1750.2C4950.75 1743.3 4909.82 1739.96 4868.95 1740.31C4856.68 1740.41 4856.68 1740.41 4848.64 1748.62C4837.69 1759.81 4836.98 1760.18 4826.59 1760.06C4821.58 1760.01 4812.83 1760.07 4807.14 1760.21C4793.02 1760.55 4791.14 1756.46 4794.96 1733.67C4796.66 1723.59 4796.66 1723.59 4792.95 1724.1C4783.13 1725.47 4749.61 1714.01 4749.37 1709.2C4748.78 1697.22 4755.22 1643.45 4759.05 1628.51C4761.35 1619.5 4761.35 1619.5 4782.43 1610.03C4865.2 1572.86 4952.4 1515.98 5016.9 1457.1C5030.13 1445.01 5030.13 1445.01 5073.98 1435.32C5117.83 1425.63 5117.83 1425.63 5127.57 1386.28C5137.77 1345.04 5139.68 1339.49 5155.28 1305.72C5163.15 1288.68 5162.73 1288.76 5176.54 1301.82C5208.95 1332.48 5236.26 1377.28 5250.56 1423.25C5255.74 1439.9 5251.54 1437.59 5289.92 1444.97C5316.56 1450.09 5375.38 1512.93 5411.05 1574.39C5479.81 1692.85 5496.6 1824.8 5467.31 2016.56C5458.52 2074.14 5434.8 2161.23 5421.9 2183.3C5421.03 2184.8 5418.3 2184.39 5405.4 2180.79C5362.98 2168.96 5322.74 2174.97 5282.22 2199.2C5252.44 2217.01 5217.08 2251.66 5222.51 2257.71C5230.86 2267.02 5233.03 2270.19 5235.22 2276.35C5241.23 2293.19 5235.53 2309.48 5220.2 2319.27C5215.18 2322.48 5215.18 2322.48 5219.05 2323.44C5241.94 2329.1 5255.2 2367.66 5246.44 2403.09C5238.62 2434.68 5244.42 2449.46 5274.77 2475.35C5284.1 2483.3 5284.1 2483.3 5281.86 2492.36C5280.01 2499.83 5279.98 2501.65 5281.68 2502.76C5319.95 2527.56 5336.27 2567.93 5318.44 2593.67C5315.16 2598.42 4572.08 2414.65 4571.38 2408.92Z" fill="url(#paint1_linear_1_5)"/>
<path d="M4241.48 942.691L4204.36 944.446C4203.79 932.366 4204.49 915.172 4194.19 906.612C4182.66 897.03 4127.08 900.293 4117.48 911.796C4109.11 921.814 4111.96 936.823 4112.53 948.788C4100.27 949.368 4076.83 946.204 4071.46 960.726C4064.4 979.874 4084.85 1012.36 4091.56 1030.07C4111.7 1083.21 4130.84 1136.77 4151.34 1189.77C4159.12 1209.9 4164.35 1239.05 4185.46 1248.86C4171.42 1260.94 4164.41 1282.74 4185.54 1291.94C4172.71 1306.85 4170.04 1319.75 4183.67 1335.11C4172.41 1335.64 4157.05 1333.7 4146.62 1338.32C4127.33 1346.85 4131.45 1367.44 4142.72 1380.13C4130 1380.73 4110.28 1377.92 4100.16 1386.91C4084.73 1400.61 4086.91 1455.11 4103.95 1467.12C4122.74 1480.35 4171.57 1468.84 4193.86 1467.79C4196.52 1524.15 4187.6 1582.25 4184.64 1638.59C4179.97 1727.57 4175.64 1816.79 4168.97 1905.65C4167.53 1924.76 4173.07 1963.32 4163.18 1979.71C4158.25 1987.89 4143.97 1983.98 4136.14 1986.35C4114.47 1992.92 4120.02 2014.4 4128.36 2028.98C4114.77 2029.62 4094.78 2026.74 4084.84 2037.95C4076.89 2046.92 4078.89 2059.49 4079.41 2070.46C4080.68 2097.43 4074.49 2138.86 4093.43 2159.87C4079.67 2160.52 4059.42 2157.56 4049.05 2168.29C4034.54 2183.3 4038.26 2240.17 4058.5 2249.29C4071.51 2255.15 4093.47 2249.95 4107.44 2249.29L4218.81 2244.02L4539.25 2228.87L4634.99 2224.34C4648.63 2223.7 4667.04 2225.98 4679.83 2220.85C4700.77 2212.44 4699.78 2155.03 4686.23 2140.32C4675.21 2128.36 4654.95 2133.32 4640.5 2134C4653.96 2108.66 4645.4 2071.82 4644.07 2043.76C4643.55 2032.85 4644.77 2019.69 4635.9 2011.63C4624.94 2001.65 4604.9 2006.45 4591.42 2007.08C4593.53 2002.55 4596.14 1997.98 4597.32 1993.09C4606.93 1953.34 4559.42 1976.38 4548.19 1961.51C4537.04 1946.73 4538.74 1910.36 4535.63 1892.23C4519.06 1795.37 4504.67 1697.85 4490.29 1600.64C4483.15 1552.41 4478.55 1502.32 4467.4 1454.85L4533.83 1451.71C4543.58 1451.25 4554.93 1452.39 4562.8 1445.58C4577.59 1432.79 4576.18 1377.82 4560.46 1365.87C4549.32 1357.4 4530.89 1361.77 4517.86 1362.39C4537.66 1323.53 4502.43 1320.04 4472.84 1321.44C4481.27 1303.28 4480.49 1292.3 4464.94 1278.73C4482.42 1269.08 4480.03 1246.37 4463 1237.7L4462.82 1233.79C4482.52 1223.23 4483.91 1193.35 4489.36 1173.79C4504.81 1118.3 4519.39 1062.58 4535 1007.14C4539.75 990.259 4555.42 956.853 4548.43 939.963C4541.82 924.021 4518.77 929.58 4505.25 930.219C4504.67 918 4506.3 903.092 4496.88 893.699C4486.52 883.368 4430.46 885.292 4420.2 895.926C4410.95 905.511 4414.81 922.498 4415.38 934.469L4376.3 936.317C4375.33 915.884 4380.86 877.141 4367.42 860.572C4351.44 840.86 4293.55 854.029 4270.63 855.152C4260.05 855.67 4249.81 856.673 4243.51 866.431C4231.63 884.868 4240.49 921.73 4241.48 942.691Z" fill="url(#paint2_linear_1_5)"/>
<path d="M3629.75 1027.37C3606.75 1026.08 3583.6 1029.26 3560.54 1035.69C3548 1039.19 3535.23 1047.22 3524.32 1054.16C3451.46 1100.44 3428.02 1196.24 3473.12 1269.93C3483.53 1286.94 3497.2 1301.13 3513.74 1312.29C3520.99 1317.18 3538.78 1322.98 3542.81 1330.87C3544.6 1334.38 3533.74 1344.53 3531.66 1347.63C3527.82 1353.35 3527.35 1361.11 3522.95 1366.25C3514 1376.72 3501.85 1381.48 3495.05 1394.43C3487.16 1409.46 3495.73 1433.23 3510.07 1441.32C3529.67 1452.37 3562.96 1454.26 3584.94 1451.17C3591.33 1476.8 3596.09 1502.91 3600.98 1528.82C3608.81 1570.33 3617.25 1610.09 3609.11 1652.6C3606.41 1666.68 3602.85 1680.58 3596.07 1693.33C3588.04 1708.42 3577.72 1723.14 3574.73 1740.31C3573.31 1748.48 3575.62 1759.24 3578.94 1766.76C3580.51 1770.31 3586.22 1776.36 3585.01 1780.24C3582.66 1787.75 3573.69 1794.85 3568.78 1800.83C3556.66 1815.59 3544.88 1830.24 3535.25 1846.8C3525.71 1863.19 3519.49 1882.36 3520.02 1901.41C3520.23 1908.98 3523.99 1917.45 3523.43 1924.72C3522.9 1931.54 3517.86 1938.41 3515.87 1944.93C3509.8 1964.85 3507.85 1985.97 3515 2005.97C3520.52 2021.41 3529.42 2034.45 3540.34 2045.83L4081.69 1915.6C4083.93 1908.91 4085.74 1902.09 4086.83 1895.11C4091.21 1866.95 4082.82 1838.85 4064.27 1817.42C4057.79 1809.93 4046.04 1803.95 4041.11 1795.7C4037.3 1789.32 4036.62 1780.4 4033.2 1773.51C4024.67 1756.33 4010.1 1742.71 3994.1 1732.43C3978.75 1722.57 3961.72 1715.13 3944.8 1708.38C3937.17 1705.34 3924.88 1702.87 3918.94 1697.01C3915.92 1694.02 3918.31 1685.5 3917.91 1681.44C3917.05 1672.56 3913.7 1662.54 3908.1 1655.56C3899.25 1644.52 3886.93 1638.12 3875.44 1630.37C3861.35 1620.87 3849.59 1610.21 3838.94 1596.98C3796.41 1544.16 3780.63 1470.84 3764.57 1406.4C3785.81 1398.57 3813.43 1381.54 3826.02 1362.43C3835.82 1347.56 3830.19 1322.42 3815.39 1312.92C3804 1305.6 3791.33 1307.35 3779.48 1302.45C3773.09 1299.81 3768.22 1293.1 3762.1 1289.54C3758.88 1287.67 3745.38 1284.42 3745.31 1280.4C3745.25 1276.68 3749.31 1271.98 3751.14 1268.95C3756.13 1260.64 3761.14 1252.37 3765.49 1243.71C3775.19 1224.39 3778.55 1202.76 3778.56 1181.3C3778.61 1121.27 3739.47 1061.5 3683.01 1039.07C3665.42 1032.08 3647.63 1028.37 3629.75 1027.37Z" fill="url(#paint3_linear_1_5)"/>
<defs>
<linearGradient id="paint0_linear_1_5" x1="282.522" y1="1695.5" x2="9167.35" y2="1760.64" gradientUnits="userSpaceOnUse">
<stop stop-color="#3786A7"/>
<stop offset="1" stop-color="#000080" stop-opacity="0"/>
<stop offset="1" stop-color="#07E4F2" stop-opacity="0"/>
<stop offset="1" stop-color="#07FFD2" stop-opacity="0"/>
</linearGradient>
<linearGradient id="paint1_linear_1_5" x1="5135.02" y1="1619" x2="5997.02" y2="1943" gradientUnits="userSpaceOnUse">
<stop offset="0.0208333" stop-color="#E78C22" stop-opacity="0.56"/>
<stop offset="0.979167" stop-color="#971091" stop-opacity="0.01"/>
</linearGradient>
<linearGradient id="paint2_linear_1_5" x1="4368.52" y1="1701" x2="4957.52" y2="1646.5" gradientUnits="userSpaceOnUse">
<stop stop-color="#E78C22" stop-opacity="0.53"/>
<stop offset="0.927772" stop-color="#971091" stop-opacity="0"/>
</linearGradient>
<linearGradient id="paint3_linear_1_5" x1="3614.02" y1="1272.5" x2="4087.52" y2="1146" gradientUnits="userSpaceOnUse">
<stop offset="0.103272" stop-color="#E78C22" stop-opacity="0.56"/>
<stop offset="1" stop-color="#971091" stop-opacity="0.01"/>
</linearGradient>
</defs>
</svg>
